<?xml version="1.0" encoding="UTF-8"?> <svg xmlns="http://www.w3.org/2000/svg" width="18" height="18" viewBox="0 0 18 18" fill="none"> <g clip-path="url(#clip0_1_879)"> <path fill-rule="evenodd" clip-rule="evenodd" d="M13.0613 10.7865C12.8378 10.6748 11.742 10.1363 11.538 10.0613C11.334 9.98703 11.1855 9.95028 11.0363 10.1738C10.8877 10.3958 10.461 10.8983 10.3312 11.0468C10.2007 11.196 10.071 11.214 9.84825 11.103C9.6255 10.9905 8.907 10.7558 8.05575 9.99678C7.3935 9.40578 6.94575 8.67603 6.816 8.45253C6.68625 8.22978 6.80175 8.10903 6.9135 7.99803C7.014 7.89828 7.13625 7.73778 7.248 7.60803C7.35975 7.47753 7.3965 7.38453 7.47075 7.23528C7.54575 7.08678 7.50825 6.95703 7.452 6.84528C7.3965 6.73353 6.951 5.63628 6.765 5.19003C6.58425 4.75578 6.4005 4.81503 6.264 4.80753C6.1335 4.80153 5.985 4.80003 5.8365 4.80003C5.688 4.80003 5.4465 4.85553 5.2425 5.07903C5.03775 5.30178 4.4625 5.84103 4.4625 6.93828C4.4625 8.03478 5.2605 9.09453 5.37225 9.24378C5.484 9.39228 6.9435 11.6438 9.17925 12.609C9.71175 12.8385 10.1265 12.9758 10.4497 13.0778C10.9837 13.248 11.4698 13.224 11.8538 13.1663C12.2812 13.1025 13.1723 12.627 13.3583 12.1065C13.5435 11.586 13.5435 11.1398 13.488 11.0468C13.4325 10.9538 13.284 10.8983 13.0605 10.7865H13.0613ZM8.99475 16.3388H8.99175C7.66382 16.339 6.36028 15.9821 5.21775 15.3053L4.94775 15.1448L2.14125 15.8813L2.8905 13.1453L2.71425 12.8648C1.97185 11.683 1.57897 10.3154 1.581 8.91978C1.5825 4.83228 4.908 1.50678 8.99775 1.50678C10.9777 1.50678 12.8393 2.27928 14.2388 3.68028C14.929 4.36772 15.4762 5.1852 15.8485 6.08545C16.2208 6.9857 16.4109 7.95084 16.4078 8.92503C16.4062 13.0125 13.0807 16.3388 8.99475 16.3388ZM15.3038 2.61603C14.4774 1.78422 13.4942 1.12468 12.4111 0.675631C11.328 0.226579 10.1665 -0.00305719 8.994 3.07332e-05C4.0785 3.07332e-05 0.0765 4.00128 0.075 8.91903C0.07425 10.491 0.4845 12.0255 1.26525 13.3778L0 18L4.728 16.7595C6.03591 17.4721 7.50157 17.8455 8.991 17.8455H8.99475C13.9102 17.8455 17.9123 13.8443 17.9137 8.92578C17.9174 7.75374 17.6886 6.59261 17.2406 5.50956C16.7926 4.42651 16.1343 3.44303 15.3038 2.61603Z" fill="#4A4A4A"></path> </g> <defs> <clipPath id="clip0_1_879"> <rect width="18" height="18" fill="white"></rect> </clipPath> </defs> </svg> 